<svg xmlns="http://www.w3.org/2000/svg" width="236.564" height="58" viewBox="0 0 236.564 58">
  <g id="Group_53" data-name="Group 53" transform="translate(-63 -37)">
    <text id="TaskChron" transform="translate(63 78)" font-size="55" font-family="LilyUPCBoldItalic, LilyUPC"><tspan x="0" y="0">TaskChron</tspan></text>
    <path id="diagram-project-solid" d="M0,35.8A3.8,3.8,0,0,1,3.8,32h7.594a3.8,3.8,0,0,1,3.8,3.8v1.266H30.376V35.8a3.8,3.8,0,0,1,3.8-3.8h7.594a3.8,3.8,0,0,1,3.8,3.8v7.594a3.8,3.8,0,0,1-3.8,3.8H34.173a3.8,3.8,0,0,1-3.8-3.8V42.125H15.188v1.266a3.22,3.22,0,0,1-.024.4l6.352,8.464H29.11a3.8,3.8,0,0,1,3.8,3.8v7.594a3.8,3.8,0,0,1-3.8,3.8H21.516a3.8,3.8,0,0,1-3.8-3.8V56.048a3.22,3.22,0,0,1,.024-.4l-6.352-8.464H3.8a3.8,3.8,0,0,1-3.8-3.8Z" transform="translate(254 16.281)" fill="red"/>
  </g>
</svg>
